<svg width="1223" height="586" viewBox="0 0 1223 586" fill="none" xmlns="http://www.w3.org/2000/svg">
<path d="M915.578 409.068V464H672.414V417.125L787.404 293.834C798.96 280.976 808.075 269.664 814.748 259.898C821.421 249.97 826.223 241.1 829.152 233.287C832.245 225.312 833.791 217.743 833.791 210.582C833.791 199.84 832.001 190.644 828.42 182.994C824.839 175.182 819.549 169.16 812.551 164.928C805.715 160.696 797.251 158.58 787.16 158.58C776.418 158.58 767.141 161.184 759.328 166.393C751.678 171.601 745.819 178.844 741.75 188.121C737.844 197.398 735.891 207.896 735.891 219.615H665.334C665.334 198.456 670.38 179.088 680.471 161.51C690.562 143.769 704.803 129.69 723.195 119.273C741.587 108.694 763.397 103.404 788.625 103.404C813.527 103.404 834.523 107.473 851.613 115.611C868.866 123.587 881.887 135.143 890.676 150.279C899.628 165.253 904.104 183.157 904.104 203.99C904.104 215.709 902.232 227.184 898.488 238.414C894.745 249.482 889.374 260.549 882.375 271.617C875.539 282.522 867.238 293.59 857.473 304.82C847.707 316.051 836.883 327.688 825.002 339.732L763.234 409.068H915.578ZM1208.55 331.188V386.363H952.443L949.025 343.639L1097.22 108.531H1153.13L1092.58 209.85L1018.85 331.188H1208.55ZM1168.26 108.531V464H1097.95V108.531H1168.26Z" fill="white"/>
<path d="M267.578 409.068V464H24.4141V417.125L139.404 293.834C150.96 280.976 160.075 269.664 166.748 259.898C173.421 249.97 178.223 241.1 181.152 233.287C184.245 225.312 185.791 217.743 185.791 210.582C185.791 199.84 184.001 190.644 180.42 182.994C176.839 175.182 171.549 169.16 164.551 164.928C157.715 160.696 149.251 158.58 139.16 158.58C128.418 158.58 119.141 161.184 111.328 166.393C103.678 171.601 97.819 178.844 93.75 188.121C89.8438 197.398 87.8906 207.896 87.8906 219.615H17.334C17.334 198.456 22.3796 179.088 32.4707 161.51C42.5618 143.769 56.8034 129.69 75.1953 119.273C93.5872 108.694 115.397 103.404 140.625 103.404C165.527 103.404 186.523 107.473 203.613 115.611C220.866 123.587 233.887 135.143 242.676 150.279C251.628 165.253 256.104 183.157 256.104 203.99C256.104 215.709 254.232 227.184 250.488 238.414C246.745 249.482 241.374 260.549 234.375 271.617C227.539 282.522 219.238 293.59 209.473 304.82C199.707 316.051 188.883 327.688 177.002 339.732L115.234 409.068H267.578Z" fill="white"/>
<path d="M440.956 451.032L343.458 519.838L406.777 504.67L440.956 451.032Z" fill="#739A21"/>
<path d="M451.985 431.054L432.031 407.19L441.013 450.993L507.304 462.939L451.985 431.054Z" fill="#478A00"/>
<path d="M441.467 474.269L415.895 490.405L441.012 450.994L507.415 462.866L441.467 474.269Z" fill="#356602"/>
<path d="M539.031 441.06L426.907 400.214L474.899 444.346L539.031 441.06Z" fill="#739A21"/>
<path d="M539.03 441.062L431.228 491.074L497.038 490.966L539.03 441.062Z" fill="#739A21"/>
<path d="M539.008 441.126L501.997 554.574L543.682 504.557L539.008 441.126Z" fill="#739A21"/>
<path d="M426.908 400.215L539.032 441.061L490.675 397.931L426.908 400.215Z" fill="#AED534"/>
<path d="M431.397 491.433L539.031 441.061L474.899 444.346L431.397 491.433Z" fill="#AED534"/>
<path d="M501.903 554.792L539.031 441.063L497.038 490.967L501.903 554.792Z" fill="#AED534"/>
<path d="M535.904 418.518L505.641 411.321L539.031 441.061L599.31 411L535.904 418.518Z" fill="#478A00"/>
<path d="M553.312 459.446L542.463 487.67L539.031 441.061L599.355 410.875L553.312 459.446Z" fill="#356602"/>
<path d="M603.213 377.406L488.074 408.762L552.737 417.103L603.213 377.406Z" fill="#739A21"/>
<path d="M603.212 377.408L544.042 480.469L597.722 442.397L603.212 377.408Z" fill="#739A21"/>
<path d="M603.231 377.472L638.484 491.478L643.658 426.574L603.231 377.472Z" fill="#739A21"/>
<path d="M488.074 408.763L603.212 377.406L538.83 370.094L488.074 408.763Z" fill="#AED534"/>
<path d="M544.387 480.664L603.212 377.406L552.736 417.103L544.387 480.664Z" fill="#AED534"/>
<path d="M638.533 491.712L603.213 377.407L597.722 442.397L638.533 491.712Z" fill="#AED534"/>
<path d="M587.647 360.801L558.78 372.39L603.212 377.405L635.088 318.066L587.647 360.801Z" fill="#478A00"/>
<path d="M625.485 384.177L632.916 413.487L603.212 377.405L635.053 317.938L625.485 384.177Z" fill="#356602"/>
<path d="M635.742 293.606L543.661 369.51L606.038 350.54L635.742 293.606Z" fill="#739A21"/>
<path d="M635.742 293.607L624.152 411.879L657.444 355.111L635.742 293.607Z" fill="#739A21"/>
<path d="M635.785 293.659L714.775 383.106L692.819 321.81L635.785 293.659Z" fill="#739A21"/>
<path d="M543.661 369.509L635.742 293.606L574.042 313.398L543.661 369.509Z" fill="#AED534"/>
<path d="M624.546 411.916L635.741 293.606L606.038 350.539L624.546 411.916Z" fill="#AED534"/>
<path d="M714.916 383.299L635.743 293.607L657.445 355.112L714.916 383.299Z" fill="#AED534"/>
<path d="M614.727 284.866L593.172 307.294L635.741 293.607L640.414 226.41L614.727 284.866Z" fill="#478A00"/>
<path d="M658.829 290.626L677.648 314.293L635.741 293.606L640.33 226.307L658.829 290.626Z" fill="#356602"/>
<path d="M606.624 208.413L578.2 324.31L616.857 271.808L606.624 208.413Z" fill="#739A21"/>
<path d="M606.626 208.414L668.053 310.146L660.796 244.737L606.626 208.414Z" fill="#739A21"/>
<path d="M606.692 208.429L723.489 232.897L669.239 196.891L606.692 208.429Z" fill="#739A21"/>
<path d="M578.2 324.311L606.625 208.413L569.003 261.169L578.2 324.311Z" fill="#AED534"/>
<path d="M668.391 309.939L606.625 208.413L616.858 271.808L668.391 309.939Z" fill="#AED534"/>
<path d="M723.716 232.967L606.626 208.413L660.796 244.736L723.716 232.967Z" fill="#AED534"/>
<path d="M584.555 213.97L580.687 244.836L606.624 208.412L570.193 151.756L584.555 213.97Z" fill="#478A00"/>
<path d="M623.349 192.219L652.585 199.938L606.625 208.413L570.064 151.725L623.349 192.219Z" fill="#356602"/>
<path d="M541.728 147.199L575.56 261.635L582.504 196.807L541.728 147.199Z" fill="#739A21"/>
<path d="M541.729 147.198L646.042 204.132L606.822 151.286L541.729 147.198Z" fill="#739A21"/>
<path d="M541.794 147.178L655.013 109.475L590.012 105.702L541.794 147.178Z" fill="#739A21"/>
<path d="M575.559 261.634L541.727 147.199L535.804 211.724L575.559 261.634Z" fill="#AED534"/>
<path d="M646.229 203.784L541.728 147.199L582.504 196.807L646.229 203.784Z" fill="#AED534"/>
<path d="M655.245 109.422L541.729 147.198L606.822 151.286L655.245 109.422Z" fill="#AED534"/>
<path d="M525.463 163.118L537.672 191.729L541.728 147.199L481.715 116.61L525.463 163.118Z" fill="#478A00"/>
<path d="M548.016 124.784L577.159 116.724L541.727 147.198L481.586 116.647L548.016 124.784Z" fill="#356602"/>
<path d="M461.384 147.055L551.057 225.788L522.34 167.255L461.384 147.055Z" fill="#739A21"/>
<path d="M461.385 147.053L579.987 139.548L518.619 115.779L461.385 147.053Z" fill="#739A21"/>
<path d="M461.429 147.003L537.068 54.7046L480.08 86.196L461.429 147.003Z" fill="#739A21"/>
<path d="M551.057 225.788L461.384 147.055L490.804 204.787L551.057 225.788Z" fill="#AED534"/>
<path d="M579.959 139.153L461.384 147.054L522.341 167.254L579.959 139.153Z" fill="#AED534"/>
<path d="M537.236 54.5355L461.385 147.053L518.619 115.78L537.236 54.5355Z" fill="#AED534"/>
<path d="M456.122 169.197L481.713 186.881L461.384 147.055L394.307 153.205L456.122 169.197Z" fill="#478A00"/>
<path d="M454.744 124.742L475.091 102.375L461.384 147.054L394.219 153.305L454.744 124.742Z" fill="#356602"/>
<path d="M390.869 174.184L502.643 215.977L455.026 171.442L390.869 174.184Z" fill="#739A21"/>
<path d="M390.869 174.183L499.091 125.084L433.282 124.636L390.869 174.183Z" fill="#739A21"/>
<path d="M390.892 174.12L428.861 60.9888L386.754 110.652L390.892 174.12Z" fill="#739A21"/>
<path d="M502.642 215.978L390.868 174.185L438.858 217.723L502.642 215.978Z" fill="#AED534"/>
<path d="M498.925 124.725L390.869 174.185L455.026 171.442L498.925 124.725Z" fill="#AED534"/>
<path d="M428.957 60.7717L390.869 174.183L433.282 124.636L428.957 60.7717Z" fill="#AED534"/>
<path d="M393.805 196.753L424.006 204.206L390.869 174.185L330.338 203.735L393.805 196.753Z" fill="#478A00"/>
<path d="M376.744 155.68L387.831 127.549L390.869 174.185L330.292 203.861L376.744 155.68Z" fill="#356602"/>
<path d="M329.581 238.868L444.164 205.536L379.367 198.309L329.581 238.868Z" fill="#739A21"/>
<path d="M329.581 238.867L386.97 134.803L333.953 173.792L329.581 238.867Z" fill="#739A21"/>
<path d="M329.562 238.802L292.353 125.419L288.296 190.403L329.562 238.802Z" fill="#739A21"/>
<path d="M444.163 205.536L329.581 238.868L394.08 245.072L444.163 205.536Z" fill="#AED534"/>
<path d="M386.622 134.614L329.581 238.867L379.367 198.308L386.622 134.614Z" fill="#AED534"/>
<path d="M292.3 125.186L329.581 238.866L333.953 173.792L292.3 125.186Z" fill="#AED534"/>
<path d="M345.429 255.203L374.093 243.119L329.581 238.869L298.731 298.747L345.429 255.203Z" fill="#478A00"/>
<path d="M307.195 232.48L299.262 203.302L329.581 238.868L298.768 298.874L307.195 232.48Z" fill="#356602"/>
<path d="M316.971 333.928L391.305 240.575L334.219 272.071L316.971 333.928Z" fill="#739A21"/>
<path d="M316.969 333.926L303.774 215.822L282.982 278.261L316.969 333.926Z" fill="#739A21"/>
<path d="M316.916 333.885L221.091 262.767L255.284 318.177L316.916 333.885Z" fill="#739A21"/>
<path d="M391.305 240.575L316.971 333.927L373.223 301.767L391.305 240.575Z" fill="#AED534"/>
<path d="M303.381 215.869L316.971 333.927L334.218 272.071L303.381 215.869Z" fill="#AED534"/>
<path d="M220.915 262.608L316.97 333.926L282.982 278.261L220.915 262.608Z" fill="#AED534"/>
<path d="M339.34 338.12L355.774 311.708L316.97 333.928L326.337 400.632L339.34 338.12Z" fill="#478A00"/>
<path d="M295.003 341.632L271.684 322.383L316.971 333.928L326.441 400.715L295.003 341.632Z" fill="#356602"/>
<path d="M355.148 410.574L378.497 293.548L342.164 347.685L355.148 410.574Z" fill="#739A21"/>
<path d="M355.148 410.574L289.348 311.615L299.447 376.646L355.148 410.574Z" fill="#739A21"/>
<path d="M355.082 410.562L237.33 391.205L293.096 424.813L355.082 410.562Z" fill="#739A21"/>
<path d="M378.497 293.549L355.149 410.575L390.437 356.23L378.497 293.549Z" fill="#AED534"/>
<path d="M289.017 311.837L355.148 410.575L342.163 347.685L289.017 311.837Z" fill="#AED534"/>
<path d="M237.1 391.144L355.148 410.574L299.447 376.645L237.1 391.144Z" fill="#AED534"/>
<path d="M376.956 404.06L379.475 373.055L355.149 410.574L394.014 465.59L376.956 404.06Z" fill="#478A00"/>
<path d="M339.146 427.482L309.602 421.044L355.149 410.575L394.145 465.617L339.146 427.482Z" fill="#356602"/>
<path d="M441.013 450.993L375.561 351.212L387.643 415.281L441.013 450.993Z" fill="#739A21"/>
<path d="M375.562 351.212L441.013 450.993L428.041 387.509L375.562 351.212Z" fill="#AED534"/>
<path d="M441.012 450.994L324.699 426.625L377.514 465.887L441.012 450.994Z" fill="#739A21"/>
<path d="M324.62 427.013L441.014 450.993L387.644 415.281L324.62 427.013Z" fill="#AED534"/>
<path d="M343.25 519.955L441.011 450.994L377.513 465.886L343.25 519.955Z" fill="#AED534"/>
<path d="M412.725 137.005H402.584L387.11 207.618L463.954 182.004V166.004L412.725 137.005Z" fill="#E93133"/>
<path d="M541.49 137.005H551.631L567.104 207.618L490.261 182.004V170.235L541.49 137.005Z" fill="#E93133"/>
<path d="M463.954 190.311V182.004L387.11 207.619L421.116 229.772L474.339 190.311H463.954Z" fill="url(#paint0_linear_285_3093)"/>
<path d="M490.261 190.311V182.004L567.104 207.619L533.099 229.772L479.876 190.311H490.261Z" fill="url(#paint1_linear_285_3093)"/>
<path d="M434.924 137.005H412.725L463.954 170.235V163.418L434.924 137.005Z" fill="url(#paint2_linear_285_3093)"/>
<path d="M519.291 137.005H541.49L490.261 170.235V163.418L519.291 137.005Z" fill="url(#paint3_linear_285_3093)"/>
<path d="M474.339 190.312L415.841 229.426L389.188 260.925L453.916 256.079L474.339 190.312Z" fill="#E10A11"/>
<path d="M479.877 190.312L538.375 229.426L565.028 260.925L500.299 256.079L479.877 190.312Z" fill="#E10A11"/>
<path d="M453.916 256.078L421.032 258.501L439.87 302.808L453.916 256.078Z" fill="url(#paint4_linear_285_3093)"/>
<path d="M500.299 256.078L533.183 258.501L514.345 302.808L500.299 256.078Z" fill="url(#paint5_linear_285_3093)"/>
<path d="M490.953 162.619H463.954V190.311H490.953V162.619Z" fill="#E10A11"/>
<defs>
<linearGradient id="paint0_linear_285_3093" x1="430.724" y1="182.004" x2="430.724" y2="229.772" gradientUnits="userSpaceOnUse">
<stop stop-color="#A30305"/>
<stop offset="0.65625" stop-color="#E93133"/>
</linearGradient>
<linearGradient id="paint1_linear_285_3093" x1="523.49" y1="182.004" x2="523.49" y2="229.772" gradientUnits="userSpaceOnUse">
<stop stop-color="#A30305"/>
<stop offset="0.65625" stop-color="#E93133"/>
</linearGradient>
<linearGradient id="paint2_linear_285_3093" x1="438.339" y1="137.005" x2="438.339" y2="170.235" gradientUnits="userSpaceOnUse">
<stop stop-color="#E93133"/>
<stop offset="1" stop-color="#B20300"/>
</linearGradient>
<linearGradient id="paint3_linear_285_3093" x1="515.876" y1="137.005" x2="515.876" y2="170.235" gradientUnits="userSpaceOnUse">
<stop stop-color="#E93133"/>
<stop offset="1" stop-color="#B20300"/>
</linearGradient>
<linearGradient id="paint4_linear_285_3093" x1="437.474" y1="256.078" x2="437.474" y2="302.808" gradientUnits="userSpaceOnUse">
<stop stop-color="#A30305"/>
<stop offset="0.65625" stop-color="#E93133"/>
</linearGradient>
<linearGradient id="paint5_linear_285_3093" x1="516.741" y1="256.078" x2="516.741" y2="302.808" gradientUnits="userSpaceOnUse">
<stop stop-color="#A30305"/>
<stop offset="0.65625" stop-color="#E93133"/>
</linearGradient>
</defs>
</svg>
