<svg width="128" height="454" viewBox="0 0 128 454" fill="none" xmlns="http://www.w3.org/2000/svg">
<path d="M126.554 366C120.839 363.696 116.304 359.161 114 353.446C111.696 359.161 107.161 363.696 101.446 366C107.161 368.304 111.696 372.839 114 378.555C116.304 372.839 120.839 368.304 126.554 366Z" stroke="white"/>
<path d="M26.5544 14.0001C20.8388 11.6961 16.304 7.16128 14 1.44569C11.696 7.16128 7.16118 11.6961 1.44559 14.0001C7.16118 16.3041 11.696 20.8389 14 26.5545C16.304 20.8389 20.8388 16.3041 26.5544 14.0001Z" stroke="white"/>
<path d="M77.3573 114.905C71.2204 112.455 66.3549 107.589 63.9048 101.452C61.4547 107.589 56.5892 112.455 50.4522 114.905C56.5892 117.355 61.4547 122.221 63.9048 128.357C66.3549 122.221 71.2204 117.355 77.3573 114.905Z" stroke="white" stroke-opacity="0.5"/>
<path d="M98.1434 37.7581L98.2994 38.4488L98.8981 38.0707L107.123 32.8767L101.929 41.1019L101.551 41.7006L102.242 41.8566L111.731 44L102.242 46.1434L101.551 46.2994L101.929 46.8981L107.123 55.1233L98.8981 49.9293L98.2994 49.5512L98.1434 50.2419L96 59.7307L93.8566 50.2419L93.7006 49.5512L93.1019 49.9293L84.8767 55.1233L90.0707 46.8981L90.4488 46.2994L89.7581 46.1434L80.2693 44L89.7581 41.8566L90.4488 41.7006L90.0707 41.1019L84.8767 32.8767L93.1019 38.0707L93.7006 38.4488L93.8566 37.7581L96 28.2693L98.1434 37.7581Z" stroke="white"/>
<path d="M69.1434 429.758L69.2994 430.449L69.8981 430.071L78.1233 424.877L72.9293 433.102L72.5512 433.701L73.2419 433.857L82.7307 436L73.2419 438.143L72.5512 438.299L72.9293 438.898L78.1233 447.123L69.8981 441.929L69.2994 441.551L69.1434 442.242L67 451.731L64.8566 442.242L64.7006 441.551L64.1019 441.929L55.8767 447.123L61.0707 438.898L61.4488 438.299L60.7581 438.143L51.2693 436L60.7581 433.857L61.4488 433.701L61.0707 433.102L55.8767 424.877L64.1019 430.071L64.7006 430.449L64.8566 429.758L67 420.269L69.1434 429.758Z" stroke="white"/>
</svg>
