<svg width="134" height="476" viewBox="0 0 134 476" fill="none" xmlns="http://www.w3.org/2000/svg">
<path d="M34.3573 73.9049C28.2204 71.4548 23.3549 66.5893 20.9048 60.4523C18.4547 66.5893 13.5892 71.4548 7.45224 73.9049C13.5892 76.355 18.4547 81.2205 20.9048 87.3574C23.3549 81.2205 28.2204 76.355 34.3573 73.9049Z" stroke="white" stroke-opacity="0.5"/>
<path d="M108.357 397.905C102.22 395.455 97.3549 390.589 94.9048 384.452C92.4547 390.589 87.5892 395.455 81.4522 397.905C87.5892 400.355 92.4547 405.221 94.9048 411.357C97.3549 405.221 102.22 400.355 108.357 397.905Z" stroke="white" stroke-opacity="0.5"/>
<path d="M37.4166 228.732C43.6349 230.463 48.4007 235.567 49.6703 241.939C50.9383 235.565 55.7014 230.466 61.9103 228.732C55.6832 227.069 50.8927 221.967 49.6716 215.576C48.4467 221.964 43.6532 227.071 37.4166 228.732Z" stroke="white"/>
<path d="M37.4166 457.732C43.6349 459.463 48.4007 464.567 49.6703 470.939C50.9383 464.565 55.7014 459.466 61.9103 457.732C55.6832 456.069 50.8927 450.967 49.6716 444.576C48.4467 450.964 43.6532 456.071 37.4166 457.732Z" stroke="white"/>
<path d="M118.143 11.7581L118.299 12.4488L118.898 12.0707L127.123 6.87671L121.929 15.1019L121.551 15.7006L122.242 15.8566L131.731 18L122.242 20.1434L121.551 20.2994L121.929 20.8981L127.123 29.1233L118.898 23.9293L118.299 23.5512L118.143 24.2419L116 33.7307L113.857 24.2419L113.701 23.5512L113.102 23.9293L104.877 29.1233L110.071 20.8981L110.449 20.2994L109.758 20.1434L100.269 18L109.758 15.8566L110.449 15.7006L110.071 15.1019L104.877 6.87671L113.102 12.0707L113.701 12.4488L113.857 11.7581L116 2.26929L118.143 11.7581Z" stroke="white"/>
<path d="M20.1434 344.758L20.2994 345.449L20.8981 345.071L29.1233 339.877L23.9293 348.102L23.5512 348.701L24.2419 348.857L33.7307 351L24.2419 353.143L23.5512 353.299L23.9293 353.898L29.1233 362.123L20.8981 356.929L20.2994 356.551L20.1434 357.242L18 366.731L15.8566 357.242L15.7006 356.551L15.1019 356.929L6.87671 362.123L12.0707 353.898L12.4488 353.299L11.7581 353.143L2.26929 351L11.7581 348.857L12.4488 348.701L12.0707 348.102L6.87671 339.877L15.1019 345.071L15.7006 345.449L15.8566 344.758L18 335.269L20.1434 344.758Z" stroke="white"/>
</svg>
