<svg width="670" height="132" viewBox="0 0 670 132" fill="none" xmlns="http://www.w3.org/2000/svg">
<path d="M44.63 46.94C42.7 46.65 40.82 46.51 39 46.51C26.58 46.51 20.37 52.67 20.37 65V105.01H0V28.02H19.21V33.94C19.21 36.15 19.26 37.26 19.35 37.26C19.45 37.16 19.59 37.07 19.78 36.97C23.63 32.92 26.62 30.33 28.74 29.17C32.11 27.24 36.49 26.28 41.88 26.28H44.62V46.94H44.63Z" fill="white"/>
<path d="M117.42 71.93H64.4104C64.8904 78.29 66.9104 83.2 70.4804 86.66C73.5604 89.55 77.3204 91 81.7504 91C85.0204 91 87.9604 90.23 90.5604 88.69C93.1604 87.15 94.8204 85.26 95.6004 82.66H116.36C114.05 90.46 109.96 96.32 103.99 100.61C98.0204 104.9 90.9404 107.04 82.7604 107.04C57.0504 107.04 44.1904 93.03 44.1904 65.01C44.1904 53.16 47.4404 43.71 53.9404 36.63C60.4404 29.56 69.5604 26.02 81.3104 26.02C105.38 26.02 117.42 41.33 117.42 71.95V71.93ZM96.6204 59.07C96.1404 53.91 94.3804 49.86 91.3504 46.9C88.3204 43.94 84.8204 42.46 80.8804 42.46C76.9404 42.46 73.7104 43.84 70.9104 46.61C67.8304 49.57 65.9004 53.72 65.1304 59.07H96.6204Z" fill="white"/>
<path d="M270.12 67.17C270.12 78.14 267.66 87.25 262.75 94.47C257.07 102.75 248.98 106.94 238.48 107.04H238.34C228.9 107.04 221.44 102.99 215.95 94.91H215.66V131.89H195.44V28.02H215.08V34.09C215.08 36.4 215.13 37.6 215.22 37.7C215.31 37.6 216.57 35.58 218.97 31.63C221.38 27.68 227.3 25.71 236.74 25.71C243.19 25.71 249.19 27.64 254.72 31.49C260.25 35.34 264.2 40.23 266.56 46.15C268.92 52.07 270.1 59.08 270.1 67.17H270.12ZM249.18 67.17C249.18 51.38 243.35 43.48 231.7 43.48C220.05 43.48 214.66 51.76 214.66 68.33C214.66 75.26 216.44 80.8 220 84.94C223.27 88.7 227.22 90.57 231.85 90.57C236.48 90.57 240.52 88.65 243.69 84.79C247.35 80.46 249.18 74.58 249.18 67.17Z" fill="white"/>
<path d="M345.15 105.01H325.94V98.22C325.94 95.53 325.89 94.18 325.8 94.18C325.8 94.28 325.75 94.32 325.65 94.32C320.55 102.99 312.74 107.32 302.25 107.32C295.03 107.32 289.01 104.96 284.2 100.24C278.71 95.04 275.97 87.87 275.97 78.72V28.02H296.34V75.68C296.34 85.21 300.67 89.98 309.34 89.98C314.44 89.98 318.34 88.34 321.04 85.07C323.73 81.8 325.09 77.61 325.09 72.5V28.02H345.17V105.01H345.15Z" fill="white"/>
<path d="M430.09 65.87C430.09 74.83 428.69 82.39 425.89 88.55C423.19 94.33 419.11 98.9 413.65 102.27C408.19 105.64 402.52 107.32 396.64 107.32C387.18 107.32 380.03 103.37 375.21 95.48H375.07V105.01H355.43V1.15002H375.51V38.13H375.8C381.3 30.04 388.78 26 398.25 26H398.39C408.91 26.1 417.02 30.29 422.72 38.56C427.64 45.78 430.11 54.88 430.11 65.86L430.09 65.87ZM409.43 67.17C409.43 51.38 403.58 43.48 391.88 43.48C380.18 43.48 374.76 51.76 374.76 68.33C374.76 75.26 376.55 80.8 380.13 84.94C383.42 88.7 387.38 90.57 392.02 90.57C396.66 90.57 400.72 88.65 403.92 84.79C407.59 80.46 409.43 74.58 409.43 67.17Z" fill="white"/>
<path d="M457.55 105.01H437.18V1.15002H457.55V105V105.01Z" fill="white"/>
<path d="M488.76 18.92H468.39V0H488.76V18.92ZM488.76 105.01H468.39V28.02H488.76V105.01Z" fill="white"/>
<path d="M638.46 105.01H619.54C618.96 103.95 618.33 101.88 617.66 98.8C612.94 104 605.43 106.6 595.13 106.6C588.01 106.6 582.13 104.97 577.51 101.69C572.12 97.84 569.42 92.26 569.42 84.94C569.42 74.45 573.51 67.23 581.7 63.27C585.45 61.44 593.11 59.8 604.66 58.36C612.84 57.3 616.94 55.09 616.94 51.72C616.94 48.73 615.71 46.35 613.26 44.57C610.8 42.79 607.94 41.9 604.67 41.9C601.4 41.9 598.41 42.82 596.01 44.64C593.31 46.66 591.77 49.51 591.39 53.16H572.03C572.51 46.9 573.98 41.85 576.44 38C578.9 34.15 582.87 31.16 588.36 29.04C593.46 27.11 599.24 26.15 605.69 26.15C627.55 26.34 638.48 36.79 638.48 57.49V105.01H638.46ZM616.94 67.45C614.93 69.09 611.38 70.39 606.31 71.35C600.56 72.41 596.83 73.42 595.1 74.39C591.56 76.22 589.78 79.4 589.78 83.92C589.78 89.7 592.8 92.59 598.83 92.59C601.61 92.59 604.48 91.94 607.45 90.64C610.42 89.34 612.67 87.78 614.21 85.95C616.22 83.45 617.22 79.74 617.22 74.83C617.22 73.96 617.17 72.71 617.08 71.07C616.98 69.44 616.94 68.23 616.94 67.46V67.45Z" fill="white"/>
<path d="M645.07 33.82C645.75 32.28 646.67 30.94 647.84 29.81C649 28.68 650.36 27.79 651.91 27.14C653.46 26.5 655.1 26.18 656.85 26.18C658.6 26.18 660.23 26.5 661.77 27.14C663.31 27.79 664.66 28.68 665.81 29.81C666.96 30.94 667.88 32.27 668.56 33.82C669.24 35.36 669.58 37.02 669.58 38.8C669.58 40.58 669.24 42.33 668.56 43.87C667.88 45.42 666.97 46.77 665.81 47.91C664.66 49.05 663.31 49.94 661.77 50.57C660.24 51.2 658.6 51.52 656.85 51.52C655.1 51.52 653.46 51.2 651.91 50.57C650.36 49.94 649 49.05 647.84 47.91C646.67 46.77 645.76 45.42 645.07 43.87C644.39 42.33 644.05 40.63 644.05 38.8C644.05 36.97 644.39 35.35 645.07 33.82ZM647.16 43.13C647.69 44.46 648.43 45.6 649.37 46.58C650.31 47.55 651.42 48.31 652.7 48.87C653.97 49.42 655.36 49.7 656.85 49.7C658.34 49.7 659.69 49.42 660.96 48.87C662.22 48.32 663.33 47.55 664.27 46.58C665.21 45.61 665.94 44.46 666.47 43.13C667.01 41.81 667.27 40.37 667.27 38.81C667.27 37.25 667 35.88 666.47 34.57C665.94 33.26 665.21 32.12 664.27 31.16C663.33 30.2 662.23 29.44 660.96 28.89C659.69 28.33 658.33 28.06 656.85 28.06C655.37 28.06 653.97 28.34 652.7 28.89C651.42 29.44 650.31 30.2 649.37 31.16C648.43 32.12 647.69 33.26 647.16 34.57C646.63 35.88 646.36 37.3 646.36 38.81C646.36 40.32 646.63 41.81 647.16 43.13ZM657.63 31.44C659.39 31.44 660.7 31.79 661.55 32.49C662.4 33.19 662.82 34.25 662.82 35.68C662.82 37.01 662.44 37.99 661.7 38.62C660.96 39.24 660.03 39.61 658.92 39.72L663.16 46.27H660.69L656.65 39.89H654.2V46.27H651.9V31.44H657.63ZM656.61 38.02C657.13 38.02 657.62 38 658.09 37.97C658.55 37.94 658.97 37.84 659.33 37.68C659.69 37.52 659.98 37.28 660.2 36.95C660.41 36.63 660.52 36.17 660.52 35.57C660.52 35.07 660.42 34.68 660.23 34.38C660.04 34.09 659.79 33.86 659.48 33.7C659.17 33.54 658.82 33.44 658.43 33.38C658.04 33.32 657.65 33.29 657.26 33.29H654.21V38.01H656.62L656.61 38.02Z" fill="white"/>
<path d="M190.25 80.41C190.25 85.9 188.9 90.67 186.21 94.71C180.43 103.09 170.42 107.28 156.17 107.28C146.44 107.28 138.11 105.07 131.18 100.64C123.48 95.64 119.73 88.56 119.62 82.64H140.59C141.59 86.39 143.27 88.09 145.84 89.59C148.3 91.02 150.76 91.87 156.01 91.97C159.77 92.04 163.02 91.23 165.76 89.73C168.51 88.24 169.88 86.29 169.88 83.88C169.88 80.7 165.79 78.2 157.6 76.37C145.47 73.58 137.81 71.41 134.63 69.87C126.44 65.92 122.35 59.86 122.35 51.67C122.35 46.86 123.51 42.47 125.82 38.52C128.13 34.57 132.03 31.42 137.52 29.06C143.01 26.7 148.93 25.52 155.29 25.52C163.96 25.52 171.23 27.59 177.1 31.73C183.84 36.35 187.45 42.9 187.93 51.37H167.85C166.79 44.53 162.26 41.11 154.27 41.11C151 41.11 148.15 41.83 145.75 43.28C143.34 44.72 142.14 46.56 142.14 48.77C142.14 51.66 146.28 54.02 154.56 55.85C166.6 58.55 174.35 60.71 177.81 62.35C186.09 66.39 190.23 72.42 190.23 80.41H190.25Z" fill="white"/>
<path d="M565.97 53.12H545.25C543.84 49.14 542.39 47.43 541.07 46.3C538.51 44.1 535.67 42.91 532.4 42.91C527.01 42.91 522.82 45.41 519.84 50.42C517.43 54.66 516.23 59.62 516.23 65.3C516.23 81.86 521.29 90.24 531.4 90.43C534.96 90.43 538.12 89.25 540.86 86.89C543.61 84.53 545.17 81.28 545.56 77.14H566.07C564.91 86.19 561.04 93.49 554.44 99.02C547.84 104.56 539.92 107.37 530.68 107.47C519.12 107.47 510.26 103.71 504.1 96.2C498.32 89.17 495.43 79.78 495.43 68.04C495.43 55.52 498.22 45.6 503.81 38.28C510.07 30.1 519.27 26 531.4 26C541.03 26 548.97 28.5 555.23 33.51C561.97 38.9 564.92 45.7 565.98 53.12H565.97Z" fill="white"/>
</svg>
