<svg width="1352" height="783" viewBox="0 0 1352 783" fill="none" xmlns="http://www.w3.org/2000/svg">
<path d="M1239.55 290C1233.84 287.696 1229.3 283.161 1227 277.446C1224.7 283.161 1220.16 287.696 1214.45 290C1220.16 292.304 1224.7 296.839 1227 302.555C1229.3 296.839 1233.84 292.304 1239.55 290Z" stroke="white"/>
<path d="M1253.55 553C1247.84 550.696 1243.3 546.161 1241 540.446C1238.7 546.161 1234.16 550.696 1228.45 553C1234.16 555.304 1238.7 559.839 1241 565.555C1243.3 559.839 1247.84 555.304 1253.55 553Z" stroke="white"/>
<path d="M1204.36 62.9049C1198.22 60.4548 1193.35 55.5893 1190.9 49.4523C1188.45 55.5893 1183.59 60.4548 1177.45 62.9049C1183.59 65.355 1188.45 70.2205 1190.9 76.3574C1193.35 70.2205 1198.22 65.355 1204.36 62.9049Z" stroke="white" stroke-opacity="0.5"/>
<path d="M381.554 226C375.839 223.696 371.304 219.161 369 213.446C366.696 219.161 362.161 223.696 356.446 226C362.161 228.304 366.696 232.839 369 238.555C371.304 232.839 375.839 228.304 381.554 226Z" stroke="white" stroke-opacity="0.5"/>
<path d="M77.3573 161.905C71.2204 159.455 66.3549 154.589 63.9048 148.452C61.4547 154.589 56.5892 159.455 50.4522 161.905C56.5892 164.355 61.4547 169.221 63.9048 175.357C66.3549 169.221 71.2204 164.355 77.3573 161.905Z" stroke="white"/>
<path d="M28.3573 224.905C22.2204 222.455 17.3549 217.589 14.9048 211.452C12.4547 217.589 7.58917 222.455 1.45224 224.905C7.58917 227.355 12.4547 232.22 14.9048 238.357C17.3549 232.22 22.2204 227.355 28.3573 224.905Z" stroke="white"/>
<path d="M560.554 215C554.839 212.696 550.304 208.161 548 202.446C545.696 208.161 541.161 212.696 535.446 215C541.161 217.304 545.696 221.839 548 227.555C550.304 221.839 554.839 217.304 560.554 215Z" stroke="white" stroke-opacity="0.5"/>
<path d="M1128.55 659C1122.84 656.696 1118.3 652.161 1116 646.446C1113.7 652.161 1109.16 656.696 1103.45 659C1109.16 661.304 1113.7 665.839 1116 671.555C1118.3 665.839 1122.84 661.304 1128.55 659Z" stroke="white" stroke-opacity="0.5"/>
<path d="M1042.36 14.9049C1036.22 12.4548 1031.35 7.58927 1028.9 1.45234C1026.45 7.58927 1021.59 12.4548 1015.45 14.9049C1021.59 17.355 1026.45 22.2205 1028.9 28.3574C1031.35 22.2205 1036.22 17.355 1042.36 14.9049Z" stroke="white"/>
<path d="M798.357 39.9049C792.22 37.4548 787.355 32.5893 784.905 26.4523C782.455 32.5893 777.589 37.4548 771.452 39.9049C777.589 42.355 782.455 47.2205 784.905 53.3574C787.355 47.2205 792.22 42.355 798.357 39.9049Z" stroke="white" stroke-opacity="0.5"/>
<path d="M673.416 165.732C679.634 167.463 684.4 172.567 685.67 178.939C686.938 172.565 691.701 167.466 697.91 165.732C691.683 164.069 686.892 158.967 685.671 152.576C684.446 158.964 679.653 164.071 673.416 165.732Z" stroke="white"/>
<path d="M477.416 572.732C483.634 574.463 488.4 579.567 489.67 585.939C490.938 579.565 495.701 574.466 501.91 572.732C495.683 571.069 490.892 565.967 489.671 559.576C488.446 565.964 483.653 571.071 477.416 572.732Z" stroke="white"/>
<path d="M1336.14 424.758L1336.3 425.449L1336.9 425.071L1345.12 419.877L1339.93 428.102L1339.55 428.701L1340.24 428.857L1349.73 431L1340.24 433.143L1339.55 433.299L1339.93 433.898L1345.12 442.123L1336.9 436.929L1336.3 436.551L1336.14 437.242L1334 446.731L1331.86 437.242L1331.7 436.551L1331.1 436.929L1322.88 442.123L1328.07 433.898L1328.45 433.299L1327.76 433.143L1318.27 431L1327.76 428.857L1328.45 428.701L1328.07 428.102L1322.88 419.877L1331.1 425.071L1331.7 425.449L1331.86 424.758L1334 415.269L1336.14 424.758Z" stroke="white"/>
<path d="M1268.14 120.758L1268.3 121.449L1268.9 121.071L1277.12 115.877L1271.93 124.102L1271.55 124.701L1272.24 124.857L1281.73 127L1272.24 129.143L1271.55 129.299L1271.93 129.898L1277.12 138.123L1268.9 132.929L1268.3 132.551L1268.14 133.242L1266 142.731L1263.86 133.242L1263.7 132.551L1263.1 132.929L1254.88 138.123L1260.07 129.898L1260.45 129.299L1259.76 129.143L1250.27 127L1259.76 124.857L1260.45 124.701L1260.07 124.102L1254.88 115.877L1263.1 121.071L1263.7 121.449L1263.86 120.758L1266 111.269L1268.14 120.758Z" stroke="white"/>
<path d="M275.143 668.758L275.299 669.449L275.898 669.071L284.123 663.877L278.929 672.102L278.551 672.701L279.242 672.857L288.731 675L279.242 677.143L278.551 677.299L278.929 677.898L284.123 686.123L275.898 680.929L275.299 680.551L275.143 681.242L273 690.731L270.857 681.242L270.701 680.551L270.102 680.929L261.877 686.123L267.071 677.898L267.449 677.299L266.758 677.143L257.269 675L266.758 672.857L267.449 672.701L267.071 672.102L261.877 663.877L270.102 669.071L270.701 669.449L270.857 668.758L273 659.269L275.143 668.758Z" stroke="white"/>
</svg>
