<svg width="77" height="77" viewBox="0 0 77 77" fill="none" xmlns="http://www.w3.org/2000/svg">
<path d="M37.9035 2L48.6935 24.9633L37.9035 38.52V22.75M37.9035 2L27.3901 24.9633L37.9035 22.75M37.9035 2V22.75" stroke="white"/>
<path d="M18.7485 70.8404L22.4102 45.7134L38.1803 39.0733L29.5801 53.1418M18.7485 70.8404L39.7028 56.742L29.5801 53.1418M18.7485 70.8404L29.5801 53.1418" stroke="white"/>
<path d="M2.72105 29.4154L27.1133 25.24L37.9967 38.8675L22.764 34.7859M2.72105 29.4154L22.1809 45.5139L22.764 34.7859M2.72105 29.4154L22.764 34.7859" stroke="white"/>
<path d="M62.0444 67.5975L39.8399 56.78L38.1799 39.0734L48.5813 51.808M62.0444 67.5975L55.1453 43.3025L48.5813 51.808M62.0444 67.5975L48.5813 51.808" stroke="white"/>
<path d="M73.9227 27.4386L55.0568 42.9467L38.4568 38.7967L54.2939 34.1671M73.9227 27.4386L48.7911 24.9395L54.2939 34.1671M73.9227 27.4386L54.2939 34.1671" stroke="white"/>
</svg>
