<svg width="36" height="36" viewBox="0 0 36 36" fill="none" xmlns="http://www.w3.org/2000/svg">
<path d="M20.1434 11.7581L20.2994 12.4488L20.8981 12.0707L29.1233 6.87671L23.9293 15.1019L23.5512 15.7006L24.2419 15.8566L33.7307 18L24.2419 20.1434L23.5512 20.2994L23.9293 20.8981L29.1233 29.1233L20.8981 23.9293L20.2994 23.5512L20.1434 24.2419L18 33.7307L15.8566 24.2419L15.7006 23.5512L15.1019 23.9293L6.87671 29.1233L12.0707 20.8981L12.4488 20.2994L11.7581 20.1434L2.26929 18L11.7581 15.8566L12.4488 15.7006L12.0707 15.1019L6.87671 6.87671L15.1019 12.0707L15.7006 12.4488L15.8566 11.7581L18 2.26929L20.1434 11.7581Z" stroke="#AED534"/>
</svg>
