<svg width="198" height="317" viewBox="0 0 198 317" fill="none" xmlns="http://www.w3.org/2000/svg">
<path d="M121.707 225.162L109.459 117.241L90.9712 146.358L86.3493 189.111L121.707 225.162Z" fill="#4D5054" stroke="white"/>
<path d="M37.5945 196.987L64.6267 140.581L58.1561 137.115L26.0039 188.908L37.5945 196.987Z" fill="#4D5054" stroke="white"/>
<path d="M65.0889 141.043L76.4125 116.778L43.5971 128.795L65.0889 141.043Z" fill="#4D5054" stroke="white"/>
<path d="M188.262 204.594L144.719 134.468L125.05 146.058L135.572 186.107L188.262 204.594Z" fill="#4D5054" stroke="white"/>
<path d="M90.9817 146.409L109.459 117.241L81.4969 136.652L90.9817 146.409Z" fill="#4D5054" stroke="white"/>
<path d="M196.35 255.642L170.468 211.989L148.976 221.233L159.822 249.671L196.35 255.642Z" fill="#4D5054" stroke="white"/>
<path d="M144.816 134.573L115.236 63.3956L105.992 81.1899L109.459 117.241L144.816 134.573Z" fill="#4D5054" stroke="white"/>
<path d="M139.802 68.7875L102.757 1.00006L115.236 63.3956L139.802 68.7875Z" fill="#4D5054" stroke="white"/>
<path d="M111.076 71.4838L102.757 1L96.5174 62.9333L111.076 71.4838Z" fill="#4D5054" stroke="white"/>
<path d="M90.047 80.4965L102.757 1L66.9375 68.2485L90.047 80.4965Z" fill="#4D5054" stroke="white"/>
<path d="M115.236 63.3956L102.757 1.00006L111.076 71.4839L115.236 63.3956Z" fill="#4D5054" stroke="white"/>
<path d="M96.518 62.9334L102.758 1.00006L72.0219 68.0175L90.2784 79.8033L96.518 62.9334Z" fill="#4D5054" stroke="white"/>
<path d="M158.913 126.484L128.409 75.4124L121.938 79.5721L137.422 117.009L158.913 126.484Z" fill="#4D5054" stroke="white"/>
<path d="M106.085 81.0805L96.518 62.9333L81.4969 136.653L109.459 117.241L106.085 81.0805Z" fill="#4D5054" stroke="white"/>
<path d="M64.8581 227.473L86.3498 189.111L90.9717 146.358L81.4969 136.653L76.1817 116.778L29.1652 213.143L64.8581 227.473Z" fill="#4D5054" stroke="white"/>
<path d="M2 268.839L56.7694 256.822L55.8584 243.349L64.8577 227.473L33.4289 214.763L2 268.839Z" fill="#4D5054" stroke="white"/>
<path d="M121.707 224.931L109.459 117.241L125.173 146.127L135.588 186.098L121.707 224.931Z" fill="#4D5054" stroke="white"/>
<path d="M179.943 301.423L114.312 265.141L111.77 233.943L121.707 224.931L135.588 186.098L179.943 301.423Z" fill="#4D5054" stroke="white"/>
<path d="M86.3493 189.111L60.424 315L55.8448 243.418L86.3493 189.111Z" fill="#4D5054" stroke="white"/>
<path d="M179.943 301.423L107.841 275.771L114.312 265.141L179.943 301.423Z" fill="#4D5054" stroke="white"/>
<path d="M121.707 224.931L111.77 233.943L86.3494 189.111L121.707 224.931Z" fill="#4D5054" stroke="white"/>
<path d="M57.6938 271.381L2.00005 268.839L56.7695 256.822L57.6938 271.381Z" fill="#4D5054" stroke="white"/>
<path d="M111.77 233.943L114.312 265.141L107.842 275.771L60.4672 314.826L86.3498 189.111L111.77 233.943Z" fill="#4D5054" stroke="white"/>
<path d="M125.174 146.127L109.459 117.241L144.817 134.573L125.174 146.127Z" fill="#4D5054" stroke="white"/>
<path d="M144.816 134.573L137.421 117.01L158.913 126.484L144.816 134.573Z" fill="#4D5054" stroke="white"/>
<path d="M121.938 79.5722L115.236 63.3956L139.732 68.7107L121.938 79.5722Z" fill="#4D5054" stroke="white"/>
<path d="M106.084 81.0805L96.5174 62.9333L111.076 71.4838L106.084 81.0805Z" fill="#4D5054" stroke="white"/>
<path d="M148.976 221.233L135.573 186.107L188.263 204.594L148.976 221.233Z" fill="#4D5054" stroke="white"/>
<path d="M64.8574 227.473L76.8743 206.212L29.2688 213.145L64.8574 227.473Z" fill="#4D5054" stroke="white"/>
<path d="M164.229 260.519L159.838 249.658L196.351 255.666L164.229 260.519Z" fill="#4D5054" stroke="white"/>
<path d="M81.4962 136.653L76.2293 116.906L96.5173 62.9333L81.4962 136.653Z" fill="#4D5054" stroke="white"/>
<path d="M43.5652 128.848L77.7988 74.0259L89.9276 80.3781L76.2296 116.906L43.5652 128.848Z" fill="#4D5054" stroke="white"/>
<path d="M90.2784 79.8033L96.518 62.9333L72.0219 68.0174L90.2784 79.8033Z" fill="#4D5054" stroke="white"/>
</svg>
