<svg width="556" height="545" viewBox="0 0 556 545" fill="none" xmlns="http://www.w3.org/2000/svg">
<path d="M247.956 425.031L150.457 493.837L213.777 478.67L247.956 425.031Z" fill="#739A21"/>
<path d="M258.985 405.054L239.031 381.191L248.013 424.994L314.304 436.939L258.985 405.054Z" fill="#478A00"/>
<path d="M248.466 448.269L222.895 464.405L248.012 424.994L314.414 436.866L248.466 448.269Z" fill="#356602"/>
<path d="M346.031 415.061L233.907 374.214L281.899 418.346L346.031 415.061Z" fill="#739A21"/>
<path d="M346.03 415.062L238.228 465.075L304.038 464.966L346.03 415.062Z" fill="#739A21"/>
<path d="M346.008 415.126L308.997 528.574L350.682 478.557L346.008 415.126Z" fill="#739A21"/>
<path d="M233.907 374.215L346.031 415.061L297.674 371.931L233.907 374.215Z" fill="#AED534"/>
<path d="M238.397 465.433L346.031 415.061L281.899 418.346L238.397 465.433Z" fill="#AED534"/>
<path d="M308.903 528.792L346.031 415.062L304.038 464.966L308.903 528.792Z" fill="#AED534"/>
<path d="M342.904 392.518L312.641 385.321L346.031 415.061L406.31 385L342.904 392.518Z" fill="#478A00"/>
<path d="M360.312 433.446L349.463 461.67L346.031 415.061L406.355 384.875L360.312 433.446Z" fill="#356602"/>
<path d="M410.213 351.406L295.074 382.762L359.737 391.102L410.213 351.406Z" fill="#739A21"/>
<path d="M410.213 351.407L351.043 454.468L404.723 416.397L410.213 351.407Z" fill="#739A21"/>
<path d="M410.231 351.472L445.484 465.478L450.658 400.573L410.231 351.472Z" fill="#739A21"/>
<path d="M295.074 382.762L410.212 351.405L345.83 344.093L295.074 382.762Z" fill="#AED534"/>
<path d="M351.387 454.663L410.212 351.406L359.736 391.103L351.387 454.663Z" fill="#AED534"/>
<path d="M445.533 465.711L410.213 351.407L404.722 416.397L445.533 465.711Z" fill="#AED534"/>
<path d="M394.648 334.801L365.78 346.39L410.213 351.405L442.088 292.066L394.648 334.801Z" fill="#478A00"/>
<path d="M432.486 358.177L439.916 387.487L410.213 351.405L442.053 291.937L432.486 358.177Z" fill="#356602"/>
<path d="M442.742 267.606L350.661 343.51L413.039 324.54L442.742 267.606Z" fill="#739A21"/>
<path d="M442.743 267.608L431.153 385.88L464.445 329.112L442.743 267.608Z" fill="#739A21"/>
<path d="M442.785 267.66L521.775 357.107L499.819 295.81L442.785 267.66Z" fill="#739A21"/>
<path d="M350.661 343.51L442.742 267.606L381.042 287.398L350.661 343.51Z" fill="#AED534"/>
<path d="M431.547 385.916L442.742 267.607L413.038 324.54L431.547 385.916Z" fill="#AED534"/>
<path d="M521.916 357.299L442.743 267.608L464.445 329.112L521.916 357.299Z" fill="#AED534"/>
<path d="M421.728 258.866L400.173 281.294L442.741 267.607L447.415 200.41L421.728 258.866Z" fill="#478A00"/>
<path d="M465.83 264.627L484.648 288.294L442.741 267.607L447.33 200.308L465.83 264.627Z" fill="#356602"/>
<path d="M413.624 182.413L385.2 298.31L423.857 245.808L413.624 182.413Z" fill="#739A21"/>
<path d="M413.626 182.414L475.053 284.145L467.796 218.737L413.626 182.414Z" fill="#739A21"/>
<path d="M413.691 182.429L530.488 206.897L476.239 170.892L413.691 182.429Z" fill="#739A21"/>
<path d="M385.2 298.31L413.625 182.413L376.003 235.169L385.2 298.31Z" fill="#AED534"/>
<path d="M475.391 283.938L413.625 182.412L423.857 245.808L475.391 283.938Z" fill="#AED534"/>
<path d="M530.716 206.967L413.626 182.413L467.796 218.736L530.716 206.967Z" fill="#AED534"/>
<path d="M391.555 187.97L387.687 218.836L413.624 182.413L377.193 125.756L391.555 187.97Z" fill="#478A00"/>
<path d="M430.349 166.219L459.584 173.938L413.624 182.413L377.063 125.724L430.349 166.219Z" fill="#356602"/>
<path d="M348.728 121.199L382.56 235.635L389.504 170.807L348.728 121.199Z" fill="#739A21"/>
<path d="M348.729 121.199L453.042 178.133L413.822 125.286L348.729 121.199Z" fill="#739A21"/>
<path d="M348.794 121.179L462.013 83.4757L397.012 79.7027L348.794 121.179Z" fill="#739A21"/>
<path d="M382.559 235.634L348.727 121.199L342.805 185.724L382.559 235.634Z" fill="#AED534"/>
<path d="M453.229 177.784L348.728 121.199L389.504 170.807L453.229 177.784Z" fill="#AED534"/>
<path d="M462.245 83.4226L348.729 121.199L413.822 125.287L462.245 83.4226Z" fill="#AED534"/>
<path d="M332.463 137.118L344.672 165.729L348.728 121.199L288.715 90.6107L332.463 137.118Z" fill="#478A00"/>
<path d="M355.017 98.7845L384.16 90.7241L348.727 121.198L288.587 90.6477L355.017 98.7845Z" fill="#356602"/>
<path d="M268.384 121.055L358.057 199.788L329.34 141.255L268.384 121.055Z" fill="#739A21"/>
<path d="M268.385 121.054L386.987 113.548L325.619 89.7797L268.385 121.054Z" fill="#739A21"/>
<path d="M268.429 121.003L344.068 28.7046L287.08 60.196L268.429 121.003Z" fill="#739A21"/>
<path d="M358.057 199.788L268.384 121.055L297.804 178.788L358.057 199.788Z" fill="#AED534"/>
<path d="M386.959 113.153L268.384 121.055L329.34 141.255L386.959 113.153Z" fill="#AED534"/>
<path d="M344.236 28.5358L268.385 121.054L325.619 89.7798L344.236 28.5358Z" fill="#AED534"/>
<path d="M263.122 143.197L288.713 160.881L268.384 121.055L201.306 127.205L263.122 143.197Z" fill="#478A00"/>
<path d="M261.744 98.7421L282.091 76.3751L268.384 121.055L201.218 127.305L261.744 98.7421Z" fill="#356602"/>
<path d="M197.869 148.184L309.643 189.977L262.026 145.441L197.869 148.184Z" fill="#739A21"/>
<path d="M197.87 148.183L306.091 99.0842L240.283 98.6365L197.87 148.183Z" fill="#739A21"/>
<path d="M197.893 148.12L235.861 34.9889L193.755 84.652L197.893 148.12Z" fill="#739A21"/>
<path d="M309.643 189.977L197.868 148.185L245.859 191.722L309.643 189.977Z" fill="#AED534"/>
<path d="M305.925 98.7248L197.869 148.185L262.026 145.442L305.925 98.7248Z" fill="#AED534"/>
<path d="M235.957 34.7718L197.869 148.183L240.282 98.6365L235.957 34.7718Z" fill="#AED534"/>
<path d="M200.805 170.753L231.006 178.206L197.868 148.185L137.338 177.735L200.805 170.753Z" fill="#478A00"/>
<path d="M183.744 129.68L194.831 101.549L197.869 148.185L137.291 177.86L183.744 129.68Z" fill="#356602"/>
<path d="M136.581 212.868L251.163 179.536L186.367 172.309L136.581 212.868Z" fill="#739A21"/>
<path d="M136.581 212.866L193.97 108.803L140.953 147.792L136.581 212.866Z" fill="#739A21"/>
<path d="M136.562 212.802L99.3532 99.4187L95.2965 164.403L136.562 212.802Z" fill="#739A21"/>
<path d="M251.164 179.536L136.581 212.868L201.08 219.072L251.164 179.536Z" fill="#AED534"/>
<path d="M193.622 108.614L136.581 212.868L186.367 172.308L193.622 108.614Z" fill="#AED534"/>
<path d="M99.3006 99.1868L136.581 212.867L140.953 147.792L99.3006 99.1868Z" fill="#AED534"/>
<path d="M152.429 229.203L181.093 217.119L136.581 212.869L105.731 272.747L152.429 229.203Z" fill="#478A00"/>
<path d="M114.195 206.481L106.262 177.303L136.581 212.868L105.769 272.875L114.195 206.481Z" fill="#356602"/>
<path d="M123.971 307.927L198.304 214.575L141.218 246.071L123.971 307.927Z" fill="#739A21"/>
<path d="M123.969 307.926L110.774 189.822L89.9814 252.261L123.969 307.926Z" fill="#739A21"/>
<path d="M123.916 307.884L28.0905 236.767L62.2837 292.176L123.916 307.884Z" fill="#739A21"/>
<path d="M198.304 214.574L123.97 307.926L180.223 275.767L198.304 214.574Z" fill="#AED534"/>
<path d="M110.381 189.868L123.971 307.927L141.218 246.071L110.381 189.868Z" fill="#AED534"/>
<path d="M27.9142 236.608L123.97 307.926L89.9819 252.261L27.9142 236.608Z" fill="#AED534"/>
<path d="M146.34 312.119L162.774 285.708L123.971 307.927L133.337 374.632L146.34 312.119Z" fill="#478A00"/>
<path d="M102.002 315.632L78.6836 296.382L123.97 307.927L133.441 374.715L102.002 315.632Z" fill="#356602"/>
<path d="M162.148 384.575L185.497 267.549L149.164 321.685L162.148 384.575Z" fill="#739A21"/>
<path d="M162.148 384.574L96.3474 285.615L106.447 350.645L162.148 384.574Z" fill="#739A21"/>
<path d="M162.081 384.562L44.3296 365.206L100.096 398.813L162.081 384.562Z" fill="#739A21"/>
<path d="M185.497 267.549L162.148 384.575L197.436 330.23L185.497 267.549Z" fill="#AED534"/>
<path d="M96.0177 285.836L162.148 384.574L149.164 321.685L96.0177 285.836Z" fill="#AED534"/>
<path d="M44.0998 365.145L162.148 384.574L106.447 350.645L44.0998 365.145Z" fill="#AED534"/>
<path d="M183.956 378.061L186.475 347.056L162.149 384.575L201.015 439.59L183.956 378.061Z" fill="#478A00"/>
<path d="M146.146 401.482L116.602 395.044L162.15 384.575L201.145 439.617L146.146 401.482Z" fill="#356602"/>
<path d="M248.012 424.994L182.561 325.213L194.643 389.282L248.012 424.994Z" fill="#739A21"/>
<path d="M182.562 325.212L248.013 424.993L235.04 361.509L182.562 325.212Z" fill="#AED534"/>
<path d="M248.012 424.994L131.699 400.625L184.514 439.887L248.012 424.994Z" fill="#739A21"/>
<path d="M131.62 401.013L248.013 424.993L194.643 389.281L131.62 401.013Z" fill="#AED534"/>
<path d="M150.249 493.956L248.01 424.994L184.512 439.887L150.249 493.956Z" fill="#AED534"/>
<path d="M219.725 111.005H209.585L194.111 181.618L270.955 156.003V140.004L219.725 111.005Z" fill="#E93133"/>
<path d="M348.491 111.005H358.632L374.105 181.618L297.261 156.003V144.234L348.491 111.005Z" fill="#E93133"/>
<path d="M270.955 164.311V156.004L194.111 181.618L228.116 203.771L281.339 164.311H270.955Z" fill="url(#paint0_linear_185_396)"/>
<path d="M297.261 164.311V156.004L374.105 181.618L340.1 203.771L286.877 164.311H297.261Z" fill="url(#paint1_linear_185_396)"/>
<path d="M241.925 111.005H219.725L270.955 144.234V137.418L241.925 111.005Z" fill="url(#paint2_linear_185_396)"/>
<path d="M326.291 111.005H348.491L297.262 144.234V137.418L326.291 111.005Z" fill="url(#paint3_linear_185_396)"/>
<path d="M281.339 164.311L222.841 203.425L196.188 234.924L260.917 230.078L281.339 164.311Z" fill="#E10A11"/>
<path d="M286.877 164.311L345.375 203.425L372.028 234.924L307.299 230.078L286.877 164.311Z" fill="#E10A11"/>
<path d="M260.916 230.078L228.033 232.501L246.87 276.808L260.916 230.078Z" fill="url(#paint4_linear_185_396)"/>
<path d="M307.3 230.078L340.183 232.501L321.346 276.808L307.3 230.078Z" fill="url(#paint5_linear_185_396)"/>
<path d="M297.954 136.619H270.954V164.311H297.954V136.619Z" fill="#E10A11"/>
<defs>
<linearGradient id="paint0_linear_185_396" x1="237.725" y1="156.004" x2="237.725" y2="203.771" gradientUnits="userSpaceOnUse">
<stop stop-color="#A30305"/>
<stop offset="0.65625" stop-color="#E93133"/>
</linearGradient>
<linearGradient id="paint1_linear_185_396" x1="330.491" y1="156.004" x2="330.491" y2="203.771" gradientUnits="userSpaceOnUse">
<stop stop-color="#A30305"/>
<stop offset="0.65625" stop-color="#E93133"/>
</linearGradient>
<linearGradient id="paint2_linear_185_396" x1="245.34" y1="111.005" x2="245.34" y2="144.234" gradientUnits="userSpaceOnUse">
<stop stop-color="#E93133"/>
<stop offset="1" stop-color="#B20300"/>
</linearGradient>
<linearGradient id="paint3_linear_185_396" x1="322.876" y1="111.005" x2="322.876" y2="144.234" gradientUnits="userSpaceOnUse">
<stop stop-color="#E93133"/>
<stop offset="1" stop-color="#B20300"/>
</linearGradient>
<linearGradient id="paint4_linear_185_396" x1="244.474" y1="230.078" x2="244.474" y2="276.808" gradientUnits="userSpaceOnUse">
<stop stop-color="#A30305"/>
<stop offset="0.65625" stop-color="#E93133"/>
</linearGradient>
<linearGradient id="paint5_linear_185_396" x1="323.742" y1="230.078" x2="323.742" y2="276.808" gradientUnits="userSpaceOnUse">
<stop stop-color="#A30305"/>
<stop offset="0.65625" stop-color="#E93133"/>
</linearGradient>
</defs>
</svg>
